<svg xmlns="http://www.w3.org/2000/svg" viewBox="0 0 408.14 134.48"><defs><style>.cls-1{fill:#62011c;}</style></defs><g id="Layer_2" data-name="Layer 2"><g id="Layer_1-2" data-name="Layer 1"><path class="cls-1" d="M11.65,24.55a20,20,0,0,1,5.26.69,19.37,19.37,0,0,1,4.76,2,19.53,19.53,0,0,1,9.15,11.68,19,19,0,0,1,.72,5.26,18.72,18.72,0,0,1-.72,5.23,19.67,19.67,0,0,1-2,4.65,18.3,18.3,0,0,1-3.09,3.92,20.32,20.32,0,0,1-4,3,21.13,21.13,0,0,1-4.72,2,19.25,19.25,0,0,1-5.23.7H4.7a4.85,4.85,0,0,1-1.83-.35,4.59,4.59,0,0,1-1.5-1A4.66,4.66,0,0,1,0,59V29.19a4.42,4.42,0,0,1,.37-1.82,4.52,4.52,0,0,1,1-1.46,4.78,4.78,0,0,1,1.5-1,4.5,4.5,0,0,1,1.83-.37ZM22,44.15a9.81,9.81,0,0,0-.81-4A10,10,0,0,0,19,37a10.32,10.32,0,0,0-3.28-2.13,10.75,10.75,0,0,0-4.06-.77H9.42v20.1h2.26a11.13,11.13,0,0,0,4.06-.74,9.57,9.57,0,0,0,5.47-5.24A10,10,0,0,0,22,44.15Z"/><path class="cls-1" d="M35.62,28.21A4.77,4.77,0,0,1,36,26.3a5,5,0,0,1,2.64-2.62,5,5,0,0,1,3.81,0,5.37,5.37,0,0,1,1.59,1.05,5.23,5.23,0,0,1,1.08,1.57,4.76,4.76,0,0,1,0,3.82,5.23,5.23,0,0,1-1.08,1.57,5.39,5.39,0,0,1-1.59,1.06,4.74,4.74,0,0,1-3.81,0A5,5,0,0,1,36,30.12,4.77,4.77,0,0,1,35.62,28.21Zm9.7,30.71A4.58,4.58,0,0,1,45,60.74a5,5,0,0,1-1,1.48,4.56,4.56,0,0,1-1.47,1,4.5,4.5,0,0,1-1.83.37,4.6,4.6,0,0,1-1.85-.37,4.74,4.74,0,0,1-1.51-1,4.89,4.89,0,0,1-1-1.48,4.27,4.27,0,0,1-.38-1.82V39.5a4.25,4.25,0,0,1,.38-1.8,4.75,4.75,0,0,1,1-1.5,4.81,4.81,0,0,1,1.52-1,4.88,4.88,0,0,1,1.88-.36,4.53,4.53,0,0,1,1.81.36A4.55,4.55,0,0,1,45,37.7a4.55,4.55,0,0,1,.35,1.8Z"/><path class="cls-1" d="M78.72,48.52c0,.17,0,.31,0,.44s0,.29,0,.45,0,.31,0,.46,0,.29,0,.45V61.64a14.13,14.13,0,0,1-1.14,5.66A14.68,14.68,0,0,1,69.75,75,14.67,14.67,0,0,1,64,76.19a15.4,15.4,0,0,1-5.58-1,12.67,12.67,0,0,1-4.55-3,6.38,6.38,0,0,1-1.26-1.83,4.78,4.78,0,0,1-.46-1.93,4.48,4.48,0,0,1,.35-1.85,4.17,4.17,0,0,1,1.13-1.56A5.39,5.39,0,0,1,55.8,63.8a4.36,4.36,0,0,1,2,0,5.24,5.24,0,0,1,1.76.78c.55.36,1.07.73,1.56,1.09a4.74,4.74,0,0,0,1.94.89,8.42,8.42,0,0,0,1.75.06,3.94,3.94,0,0,0,1.39-.38,5.17,5.17,0,0,0,1.2-.81,6,6,0,0,0,.95-1.08A6.73,6.73,0,0,0,69,63.13a16.4,16.4,0,0,1-2.32.58,14.14,14.14,0,0,1-8.07-.93A15.1,15.1,0,0,1,54,59.67a14.71,14.71,0,0,1-3.14-4.62,14.34,14.34,0,0,1,0-11.3A14.84,14.84,0,0,1,58.6,36a14.06,14.06,0,0,1,5.63-1.14,14.33,14.33,0,0,1,3.3.38,14.77,14.77,0,0,1,3,1.08,4.48,4.48,0,0,1,1.53-1.08A4.87,4.87,0,0,1,74,34.86a4.8,4.8,0,0,1,1.85.36,4.91,4.91,0,0,1,1.51,1,4.52,4.52,0,0,1,1,1.46,4.39,4.39,0,0,1,.37,1.82Zm-19.58.89a4.84,4.84,0,0,0,.41,2A5.28,5.28,0,0,0,60.66,53a5.22,5.22,0,0,0,1.62,1.08,4.76,4.76,0,0,0,2,.4,5,5,0,0,0,1.85-.34,5.08,5.08,0,0,0,1.54-.92,5.29,5.29,0,0,0,1.11-1.41,5,5,0,0,0,.56-1.75V48.8a5.15,5.15,0,0,0-1.67-3.19,4.92,4.92,0,0,0-1.54-.93,5.19,5.19,0,0,0-1.85-.34,4.93,4.93,0,0,0-2,.4,5.4,5.4,0,0,0-1.62,1.08,5.28,5.28,0,0,0-1.11,1.6A4.92,4.92,0,0,0,59.14,49.41Z"/><path class="cls-1" d="M84.51,28.21a4.77,4.77,0,0,1,.4-1.91,5,5,0,0,1,2.64-2.62,5,5,0,0,1,3.81,0A5.37,5.37,0,0,1,93,24.73,5.06,5.06,0,0,1,94,26.3a4.76,4.76,0,0,1,0,3.82A5.06,5.06,0,0,1,93,31.69a5.39,5.39,0,0,1-1.59,1.06,4.74,4.74,0,0,1-3.81,0,5,5,0,0,1-2.64-2.63A4.77,4.77,0,0,1,84.51,28.21Zm9.7,30.71a4.58,4.58,0,0,1-.36,1.82,5.19,5.19,0,0,1-1,1.48,4.61,4.61,0,0,1-1.48,1,4.5,4.5,0,0,1-1.83.37,4.63,4.63,0,0,1-1.85-.37,4.74,4.74,0,0,1-1.51-1,4.89,4.89,0,0,1-1-1.48,4.43,4.43,0,0,1-.38-1.82V39.5a4.4,4.4,0,0,1,.38-1.8,4.75,4.75,0,0,1,1-1.5,4.81,4.81,0,0,1,1.52-1,4.88,4.88,0,0,1,1.88-.36,4.53,4.53,0,0,1,1.81.36,4.55,4.55,0,0,1,2.44,2.51,4.55,4.55,0,0,1,.35,1.8Z"/><path class="cls-1" d="M112.39,34.92h.46a4.79,4.79,0,0,1,1.89.37,4.63,4.63,0,0,1,1.51,1,4.86,4.86,0,0,1,1,1.5,4.67,4.67,0,0,1,.37,1.83A4.71,4.71,0,0,1,116.25,43a4.65,4.65,0,0,1-1.51,1,5,5,0,0,1-1.89.36h-.46V59a4.56,4.56,0,0,1-2.88,4.29,5,5,0,0,1-1.85.35,4.85,4.85,0,0,1-1.83-.35,4.44,4.44,0,0,1-1.49-1,4.52,4.52,0,0,1-1-1.48A4.67,4.67,0,0,1,103,59V44.34h-.49a4.47,4.47,0,0,1-1.85-.38,4.72,4.72,0,0,1-2.51-2.51,4.71,4.71,0,0,1,0-3.66,4.67,4.67,0,0,1,1-1.5,4.78,4.78,0,0,1,1.52-1,4.63,4.63,0,0,1,1.85-.37h.5V29.19a4.58,4.58,0,0,1,.36-1.82,4.52,4.52,0,0,1,1-1.46,4.85,4.85,0,0,1,1.49-1,4.5,4.5,0,0,1,1.83-.37,4.58,4.58,0,0,1,1.84.37,4.67,4.67,0,0,1,1.5,1,4.37,4.37,0,0,1,1,1.46,4.42,4.42,0,0,1,.37,1.82Z"/><path class="cls-1" d="M119.4,49.41a14,14,0,0,1,1.16-5.66,15.12,15.12,0,0,1,3.14-4.62A14.9,14.9,0,0,1,128.33,36a14.46,14.46,0,0,1,11.23,0,14.61,14.61,0,0,1,8.91,13.23v9.55a4.71,4.71,0,0,1-.38,1.88,5.34,5.34,0,0,1-1,1.52,4.77,4.77,0,0,1-3.42,1.42,4.55,4.55,0,0,1-1.94-.4,4.31,4.31,0,0,1-1.47-1.09,14.19,14.19,0,0,1-3,1.34,11.18,11.18,0,0,1-3.28.49,14,14,0,0,1-5.62-1.15,14.69,14.69,0,0,1-7.77-7.73A14,14,0,0,1,119.4,49.41Zm9.43,0a4.85,4.85,0,0,0,.41,2A5.35,5.35,0,0,0,130.36,53,5.22,5.22,0,0,0,132,54.1a4.77,4.77,0,0,0,2,.4,4.89,4.89,0,0,0,2-.4A5.2,5.2,0,0,0,137.55,53a5.12,5.12,0,0,0,1.1-1.61,5,5,0,0,0,.4-2,4.95,4.95,0,0,0-1.5-3.59,5.4,5.4,0,0,0-1.64-1.09,5.06,5.06,0,0,0-2-.4,4.94,4.94,0,0,0-2,.4,5.43,5.43,0,0,0-1.62,1.09,5.31,5.31,0,0,0-1.12,1.6A4.92,4.92,0,0,0,128.83,49.42Z"/><path class="cls-1" d="M163.93,59a4.67,4.67,0,0,1-.36,1.83,4.61,4.61,0,0,1-2.5,2.46,5,5,0,0,1-3.66,0,4.59,4.59,0,0,1-1.5-1,4.35,4.35,0,0,1-1-1.48,4.5,4.5,0,0,1-.37-1.83V29.19a4.42,4.42,0,0,1,.37-1.82,4.37,4.37,0,0,1,1-1.46,4.78,4.78,0,0,1,1.5-1,4.71,4.71,0,0,1,3.66,0,4.73,4.73,0,0,1,1.49,1,4.46,4.46,0,0,1,1.37,3.28Z"/><path class="cls-1" d="M205.05,54.71H192.82l-2.41,6a4.22,4.22,0,0,1-1.07,1.59,4.62,4.62,0,0,1-1.57.95,5.31,5.31,0,0,1-1.83.28,4.79,4.79,0,0,1-1.88-.41,4.27,4.27,0,0,1-1.55-1.06,4.22,4.22,0,0,1-.89-1.51,5,5,0,0,1-.23-1.77,4.84,4.84,0,0,1,.48-1.85l12.9-29.55a4.7,4.7,0,0,1,1.74-2.12,4.55,4.55,0,0,1,2.59-.75,4.48,4.48,0,0,1,2.5.73,4.57,4.57,0,0,1,1.71,2.11L216,56.94a5.63,5.63,0,0,1,.45,1.85,4.87,4.87,0,0,1-.19,1.76,4.31,4.31,0,0,1-.86,1.53,4,4,0,0,1-1.51,1.08,4.73,4.73,0,0,1-1.86.41,4.93,4.93,0,0,1-1.8-.3,4.57,4.57,0,0,1-1.55-1,4.81,4.81,0,0,1-1.13-1.56Zm-8.48-9.42h4.6l-2.34-5.67Z"/><path class="cls-1" d="M225,34.83a4.39,4.39,0,0,1,2.5.73,4.62,4.62,0,0,1,1.65,1.89,15.29,15.29,0,0,1,3.38-1.89,9.29,9.29,0,0,1,3.49-.7A9.78,9.78,0,0,1,240.8,36a10.5,10.5,0,0,1,3.51,3.12,14.85,14.85,0,0,1,2.17,4.53,19.15,19.15,0,0,1,.75,5.4v10a4.38,4.38,0,0,1-.38,1.81,4.67,4.67,0,0,1-2.53,2.41,4.77,4.77,0,0,1-1.8.35,4.86,4.86,0,0,1-1.84-.35,4.7,4.7,0,0,1-1.5-1,4.47,4.47,0,0,1-1.38-3.26v-10a9.73,9.73,0,0,0-.22-1.77,5.38,5.38,0,0,0-.63-1.57,3.58,3.58,0,0,0-1.08-1.11,2.83,2.83,0,0,0-1.6-.43,4.77,4.77,0,0,0-1.83.34,4.65,4.65,0,0,0-1.5.94,4.48,4.48,0,0,0-1,1.47,4.74,4.74,0,0,0-.36,1.86V58.92a4.42,4.42,0,0,1-.37,1.82,4.8,4.8,0,0,1-1,1.48,4.61,4.61,0,0,1-1.48,1,4.5,4.5,0,0,1-1.83.37,4.58,4.58,0,0,1-1.84-.37,4.63,4.63,0,0,1-1.51-1,4.89,4.89,0,0,1-1-1.48,4.28,4.28,0,0,1-.39-1.82V39.5a4.25,4.25,0,0,1,.39-1.8,4.89,4.89,0,0,1,1-1.5,5,5,0,0,1,1.53-1A4.88,4.88,0,0,1,225,34.83Z"/><path class="cls-1" d="M251.28,49.41a14,14,0,0,1,1.16-5.66,15.12,15.12,0,0,1,3.14-4.62A14.9,14.9,0,0,1,260.21,36a14.46,14.46,0,0,1,11.23,0,14.61,14.61,0,0,1,8.91,13.23v9.55a4.71,4.71,0,0,1-.38,1.88,5.34,5.34,0,0,1-1,1.52,4.77,4.77,0,0,1-3.42,1.42,4.55,4.55,0,0,1-1.94-.4,4.31,4.31,0,0,1-1.47-1.09,14.19,14.19,0,0,1-3,1.34,11.18,11.18,0,0,1-3.28.49,14,14,0,0,1-5.62-1.15,14.69,14.69,0,0,1-7.77-7.73A14,14,0,0,1,251.28,49.41Zm9.43,0a4.85,4.85,0,0,0,.41,2A5.35,5.35,0,0,0,262.24,53a5.22,5.22,0,0,0,1.62,1.08,4.77,4.77,0,0,0,2,.4,4.89,4.89,0,0,0,2-.4A5.2,5.2,0,0,0,269.43,53a5.12,5.12,0,0,0,1.1-1.61,5,5,0,0,0,.4-2,4.95,4.95,0,0,0-1.5-3.59,5.4,5.4,0,0,0-1.64-1.09,5.06,5.06,0,0,0-2-.4,4.94,4.94,0,0,0-2,.4,5.43,5.43,0,0,0-1.62,1.09,5.31,5.31,0,0,0-1.12,1.6A4.92,4.92,0,0,0,260.71,49.42Z"/><path class="cls-1" d="M284.68,49.41a14,14,0,0,1,1.16-5.66A14.94,14.94,0,0,1,289,39.13,14.74,14.74,0,0,1,293.6,36a14.48,14.48,0,0,1,11.24,0,14.66,14.66,0,0,1,8.91,13.23v9.55a4.71,4.71,0,0,1-.38,1.88,5.17,5.17,0,0,1-1,1.52,4.67,4.67,0,0,1-1.52,1,4.8,4.8,0,0,1-1.89.38,4.55,4.55,0,0,1-1.94-.4,4.35,4.35,0,0,1-1.48-1.09,14.11,14.11,0,0,1-3,1.34,11.18,11.18,0,0,1-3.28.49,14.07,14.07,0,0,1-5.63-1.15A14.86,14.86,0,0,1,289,59.67a14.71,14.71,0,0,1-3.14-4.62A14,14,0,0,1,284.68,49.41Zm9.42,0a4.7,4.7,0,0,0,.42,2A5.32,5.32,0,0,0,295.63,53a5.15,5.15,0,0,0,1.63,1.08,4.76,4.76,0,0,0,1.95.4,4.94,4.94,0,0,0,2-.4A5.15,5.15,0,0,0,302.82,53a5,5,0,0,0,1.1-1.61,4.85,4.85,0,0,0,.4-2,4.95,4.95,0,0,0-1.5-3.59,5.36,5.36,0,0,0-1.63-1.09,5.11,5.11,0,0,0-2-.4,4.93,4.93,0,0,0-1.95.4,5.36,5.36,0,0,0-1.63,1.09,5.28,5.28,0,0,0-1.11,1.6A4.77,4.77,0,0,0,294.1,49.42Z"/><path class="cls-1" d="M344.67,59a4.38,4.38,0,0,1-.36,1.8,4.88,4.88,0,0,1-1,1.45,4.22,4.22,0,0,1-1.46,1,4.77,4.77,0,0,1-1.8.35,5,5,0,0,1-1.85-.35,4.57,4.57,0,0,1-1.52-1,4.73,4.73,0,0,1-1.05-1.45,4,4,0,0,1-.4-1.8V47.21a3.39,3.39,0,0,0-.78-2.16,2.62,2.62,0,0,0-2.09-.83,3.3,3.3,0,0,0-2.16.75,2.59,2.59,0,0,0-1,2v12a4.42,4.42,0,0,1-.37,1.82,4.8,4.8,0,0,1-1,1.48,4.66,4.66,0,0,1-3.31,1.37,4.58,4.58,0,0,1-1.84-.37,4.74,4.74,0,0,1-1.51-1,4.89,4.89,0,0,1-1-1.48,4.27,4.27,0,0,1-.38-1.82V39.5a4.25,4.25,0,0,1,.38-1.8,4.89,4.89,0,0,1,1-1.5,5,5,0,0,1,1.53-1,4.88,4.88,0,0,1,1.88-.36,4.42,4.42,0,0,1,3.66,1.86,9.55,9.55,0,0,1,2.44-1.39,7.91,7.91,0,0,1,2.81-.5,10.79,10.79,0,0,1,4.06.73,10.47,10.47,0,0,1,3.24,2,16.87,16.87,0,0,1,4-2,13.55,13.55,0,0,1,4.37-.74,10.52,10.52,0,0,1,4.62,1,9.88,9.88,0,0,1,3.42,2.66,11.63,11.63,0,0,1,2.12,3.93,16,16,0,0,1,.77,4.79V59a4.39,4.39,0,0,1-.37,1.8,4.88,4.88,0,0,1-1,1.45,4.27,4.27,0,0,1-1.45,1,4.68,4.68,0,0,1-1.79.35,5,5,0,0,1-1.85-.35,4.81,4.81,0,0,1-1.55-1,4.6,4.6,0,0,1-1.06-1.45,4.24,4.24,0,0,1-.38-1.8V47.24a3.34,3.34,0,0,0-.81-2.19,2.7,2.7,0,0,0-2.12-.83,3.31,3.31,0,0,0-1.19.23,3,3,0,0,0-1,.63,2.9,2.9,0,0,0-.69.93,2.64,2.64,0,0,0-.26,1.17Z"/><path class="cls-1" d="M84,114.71H71.81l-2.41,6a4.1,4.1,0,0,1-1.07,1.59,4.62,4.62,0,0,1-1.57,1,5.31,5.31,0,0,1-1.83.28,4.74,4.74,0,0,1-1.87-.41,4.4,4.4,0,0,1-1.56-1.06,4.05,4.05,0,0,1-.88-1.51,4.74,4.74,0,0,1-.23-1.77,5,5,0,0,1,.47-1.85l12.9-29.55A4.83,4.83,0,0,1,75.5,85.3a4.58,4.58,0,0,1,2.59-.75,4.46,4.46,0,0,1,4.21,2.84L95,116.94a5.65,5.65,0,0,1,.46,1.85,4.87,4.87,0,0,1-.2,1.76,4.28,4.28,0,0,1-.85,1.53,4.08,4.08,0,0,1-1.51,1.08,4.78,4.78,0,0,1-1.87.41,4.85,4.85,0,0,1-1.79-.3,4.71,4.71,0,0,1-1.56-1,5,5,0,0,1-1.13-1.56Zm-8.48-9.42h4.61l-2.35-5.67Z"/><path class="cls-1" d="M111,104.37a4.16,4.16,0,0,0-1.8.55,5.56,5.56,0,0,0-1.42,1.22,6.37,6.37,0,0,0-.93,1.59,4.57,4.57,0,0,0-.33,1.65,4.48,4.48,0,0,0,.33,1.64,5.92,5.92,0,0,0,.93,1.57,5.56,5.56,0,0,0,1.42,1.22,3.57,3.57,0,0,0,1.8.54l.9,0a4.48,4.48,0,0,0,.89-.09,5,5,0,0,0,.91-.29,4.65,4.65,0,0,0,1-.6q.73-.54,1.56-1.08a5.54,5.54,0,0,1,1.75-.76,4.32,4.32,0,0,1,2,0,5.46,5.46,0,0,1,2.21,1.25,4.25,4.25,0,0,1,1.12,1.56,4.3,4.3,0,0,1,.34,1.84,5.45,5.45,0,0,1-.44,1.93A6.16,6.16,0,0,1,122,120a13,13,0,0,1-4.56,3,15.33,15.33,0,0,1-5.56,1,15.52,15.52,0,0,1-5.84-1.1,14.92,14.92,0,0,1-4.76-3,14.35,14.35,0,0,1-3.22-4.55,14,14,0,0,1-1.22-5.7,14.23,14.23,0,0,1,1.19-5.8,15.27,15.27,0,0,1,3.22-4.68A14.83,14.83,0,0,1,106,95.94a15.11,15.11,0,0,1,5.86-1.14,15.32,15.32,0,0,1,5.56,1,13.11,13.11,0,0,1,4.56,3,6.15,6.15,0,0,1,1.25,1.83,5.13,5.13,0,0,1,.46,1.94,4.28,4.28,0,0,1-.35,1.84,4.43,4.43,0,0,1-1.14,1.56,5.34,5.34,0,0,1-2.21,1.25,4.32,4.32,0,0,1-2,0,5.83,5.83,0,0,1-1.75-.78c-.55-.37-1.07-.73-1.56-1.1a4.67,4.67,0,0,0-1.93-.88A8.08,8.08,0,0,0,111,104.37Z"/><path class="cls-1" d="M126.37,109.41a14,14,0,0,1,1.16-5.66,15.12,15.12,0,0,1,3.14-4.62A14.9,14.9,0,0,1,135.3,96a14.48,14.48,0,0,1,11.24,0,14.71,14.71,0,0,1,4.58,3.08,14.61,14.61,0,0,1,4.32,10.15v9.55a4.71,4.71,0,0,1-.38,1.88,5.14,5.14,0,0,1-1,1.52,4.77,4.77,0,0,1-3.42,1.42,4.47,4.47,0,0,1-1.93-.4,4.26,4.26,0,0,1-1.48-1.09,14.19,14.19,0,0,1-3,1.34,11.18,11.18,0,0,1-3.28.49,14,14,0,0,1-5.62-1.15,14.69,14.69,0,0,1-7.77-7.73A14,14,0,0,1,126.37,109.41Zm9.43,0a4.85,4.85,0,0,0,.41,2,5.35,5.35,0,0,0,1.12,1.61A5.22,5.22,0,0,0,139,114.1a4.77,4.77,0,0,0,2,.4,4.89,4.89,0,0,0,2-.4,5.2,5.2,0,0,0,1.64-1.08,5.12,5.12,0,0,0,1.1-1.61,5,5,0,0,0,.4-2,4.95,4.95,0,0,0-1.5-3.59,5.4,5.4,0,0,0-1.64-1.09,5.06,5.06,0,0,0-2-.4,4.94,4.94,0,0,0-2,.4,5.43,5.43,0,0,0-1.62,1.09,5.31,5.31,0,0,0-1.12,1.6A4.92,4.92,0,0,0,135.8,109.42Z"/><path class="cls-1" d="M188.84,119a4.5,4.5,0,0,1-.37,1.83,4.38,4.38,0,0,1-1,1.48,4.44,4.44,0,0,1-1.49,1,4.85,4.85,0,0,1-1.83.35,5,5,0,0,1-1.8-.32,4.47,4.47,0,0,1-1.46-.9,13.79,13.79,0,0,1-3.13,1.16,15,15,0,0,1-3.43.4,14.07,14.07,0,0,1-5.63-1.15,14.86,14.86,0,0,1-4.62-3.11,14.71,14.71,0,0,1-3.14-4.62,14.32,14.32,0,0,1,0-11.29,15,15,0,0,1,3.14-4.63A14.74,14.74,0,0,1,168.69,96a14.06,14.06,0,0,1,5.63-1.14,14.24,14.24,0,0,1,2.64.24,18,18,0,0,1,2.45.67V89.19a4.59,4.59,0,0,1,.37-1.82,4.39,4.39,0,0,1,1-1.46,4.6,4.6,0,0,1,1.51-1,4.55,4.55,0,0,1,1.84-.37,4.5,4.5,0,0,1,1.83.37,4.62,4.62,0,0,1,1.49,1,4.52,4.52,0,0,1,1.38,3.28Zm-19.61-9.54a4.68,4.68,0,0,0,.41,2,5.11,5.11,0,0,0,1.11,1.6,5.22,5.22,0,0,0,1.62,1.08,4.76,4.76,0,0,0,1.95.4,5,5,0,0,0,1.92-.37,5,5,0,0,0,2.7-2.56,5.31,5.31,0,0,0,.47-1.92v-.43a5.26,5.26,0,0,0-.47-1.89,5,5,0,0,0-1.1-1.54,5.23,5.23,0,0,0-1.6-1,4.85,4.85,0,0,0-1.92-.39,4.93,4.93,0,0,0-1.95.4,5.4,5.4,0,0,0-1.62,1.08,5.11,5.11,0,0,0-1.11,1.6A4.76,4.76,0,0,0,169.23,109.41Z"/><path class="cls-1" d="M203.32,112.43a8.6,8.6,0,0,0,2,1.93,4.6,4.6,0,0,0,2.55.66,9.72,9.72,0,0,0,1.2-.06,3.77,3.77,0,0,0,.81-.18,4.68,4.68,0,0,0,.58-.26l.49-.29a4.8,4.8,0,0,1,2.23-1,4,4,0,0,1,2,.22,3.55,3.55,0,0,1,1.2.74,4.67,4.67,0,0,1,.9,1.09,4.47,4.47,0,0,1,.52,1.48,6.11,6.11,0,0,1,.06,1.71,5.17,5.17,0,0,1-.48,1.69,4.06,4.06,0,0,1-1.13,1.41,12.93,12.93,0,0,1-1.28.84,10.22,10.22,0,0,1-1.74.74,14.16,14.16,0,0,1-2.32.55,19.36,19.36,0,0,1-3,.22,14.22,14.22,0,0,1-5.67-1.15,15,15,0,0,1-4.65-3.11,14.57,14.57,0,0,1-3.16-4.6,14.44,14.44,0,0,1,0-11.34,14.55,14.55,0,0,1,3.16-4.62A15,15,0,0,1,202.23,96,14.29,14.29,0,0,1,218,99a14.74,14.74,0,0,1,4.26,10.15,3.44,3.44,0,0,1-.31,1.51,2.44,2.44,0,0,1-.87,1,3.89,3.89,0,0,1-1.33.55,7.8,7.8,0,0,1-1.67.17Zm9.86-5.58a6.49,6.49,0,0,0-2.06-2.32,5.38,5.38,0,0,0-3-.83,4.69,4.69,0,0,0-2.91.89,7.47,7.47,0,0,0-2,2.26Z"/><path class="cls-1" d="M251.82,119a4.23,4.23,0,0,1-.37,1.8,4.85,4.85,0,0,1-1,1.45,4.26,4.26,0,0,1-1.47,1,4.77,4.77,0,0,1-1.8.35,4.94,4.94,0,0,1-1.84-.35,4.72,4.72,0,0,1-1.53-1,5.09,5.09,0,0,1-1.05-1.45,4.1,4.1,0,0,1-.4-1.8v-11.8a3.44,3.44,0,0,0-.77-2.16,2.63,2.63,0,0,0-2.09-.83,3.31,3.31,0,0,0-2.17.75,2.58,2.58,0,0,0-1,2v12a4.59,4.59,0,0,1-.37,1.82,4.8,4.8,0,0,1-1,1.48,4.61,4.61,0,0,1-1.48,1,4.5,4.5,0,0,1-1.83.37,4.63,4.63,0,0,1-1.85-.37,4.74,4.74,0,0,1-1.51-1,5.28,5.28,0,0,1-1-1.48,4.43,4.43,0,0,1-.38-1.82V99.5a4.4,4.4,0,0,1,.38-1.8,4.92,4.92,0,0,1,1-1.5,5,5,0,0,1,1.53-1,4.83,4.83,0,0,1,1.87-.36,4.47,4.47,0,0,1,2.11.5,4.55,4.55,0,0,1,1.56,1.36,9.39,9.39,0,0,1,2.44-1.39,7.87,7.87,0,0,1,2.81-.5,10.83,10.83,0,0,1,4.06.73,10.31,10.31,0,0,1,3.23,2,16.94,16.94,0,0,1,4-2,13.55,13.55,0,0,1,4.37-.74,10.52,10.52,0,0,1,4.62,1,10.07,10.07,0,0,1,3.42,2.66,12,12,0,0,1,2.12,3.93,16,16,0,0,1,.76,4.79V119a4.38,4.38,0,0,1-.36,1.8,4.88,4.88,0,0,1-1,1.45,4.32,4.32,0,0,1-1.46,1,4.64,4.64,0,0,1-1.79.35,5,5,0,0,1-1.85-.35,4.87,4.87,0,0,1-1.54-1,4.6,4.6,0,0,1-1.06-1.45,4.24,4.24,0,0,1-.38-1.8V107.24a3.34,3.34,0,0,0-.81-2.19,2.71,2.71,0,0,0-2.12-.83,3.27,3.27,0,0,0-1.19.23,3.08,3.08,0,0,0-1,.63,3,3,0,0,0-.68.93,2.64,2.64,0,0,0-.26,1.17Z"/><path class="cls-1" d="M284.48,108.37l4.94-10.7a4.9,4.9,0,0,1,1.07-1.53,4.41,4.41,0,0,1,1.51-1,4.69,4.69,0,0,1,3.62.11,5,5,0,0,1,1.52,1.11,5.07,5.07,0,0,1,1,1.52,4.66,4.66,0,0,1,.32,1.79,4.6,4.6,0,0,1-.44,1.86l-14.37,30.1a5,5,0,0,1-2.67,2.49,5,5,0,0,1-1.77.32,4,4,0,0,1-1.81-.43,3.9,3.9,0,0,1-2.29-2.53,4.57,4.57,0,0,1-.15-1.74,5.79,5.79,0,0,1,.52-1.86l4-8.72L271,101.51a4.21,4.21,0,0,1-.42-1.82,4.88,4.88,0,0,1,.32-1.78,4.53,4.53,0,0,1,1-1.54,5,5,0,0,1,1.52-1.12,4.68,4.68,0,0,1,1.82-.41,4.78,4.78,0,0,1,1.77.31,4.5,4.5,0,0,1,1.51,1,5.26,5.26,0,0,1,1.09,1.52Z"/><path class="cls-1" d="M361.6,23.26a23.27,23.27,0,1,1,23.25,23.28A23.26,23.26,0,0,1,361.6,23.26ZM384.88,4.73a18.54,18.54,0,1,0,18.54,18.54A18.52,18.52,0,0,0,384.88,4.73Z"/><path class="cls-1" d="M381,25.72v9.17H374.7V10.56h9.79a15,15,0,0,1,5.26.81,5.48,5.48,0,0,1,3.77,5.21,7.93,7.93,0,0,1-.46,3.48,6,6,0,0,1-3.78,3.34l-.37.13a6,6,0,0,1,3.71,3.35c1.35,2.59,2.63,5.22,3.94,7.84a1.08,1.08,0,0,1,.06.19h-6.29a.48.48,0,0,1-.51-.31q-1.45-3-2.95-6a9.81,9.81,0,0,0-.71-1.21,3.58,3.58,0,0,0-2.91-1.7C382.51,25.69,381.75,25.72,381,25.72Zm0-4.3c1.33-.05,2.64,0,3.93-.17a2.38,2.38,0,0,0,2.25-1.88,4.87,4.87,0,0,0,0-2.15,2.29,2.29,0,0,0-1.76-1.88,2.85,2.85,0,0,0-.76-.15c-1.22,0-2.45,0-3.69,0Z"/></g></g></svg>