<?xml version="1.0" encoding="utf-8"?>
<!-- Generator: Adobe Illustrator 26.0.2, SVG Export Plug-In . SVG Version: 6.00 Build 0)  -->
<svg version="1.1" id="Layer_1" xmlns="http://www.w3.org/2000/svg" xmlns:xlink="http://www.w3.org/1999/xlink" x="0px" y="0px"
	 viewBox="0 0 1080 300" style="enable-background:new 0 0 1080 300;" xml:space="preserve">
<style type="text/css">
	.st0{enable-background:new    ;}
	.st1{fill:#3A3A3A;}
	.st2{fill-rule:evenodd;clip-rule:evenodd;fill:#DD2A1B;}
</style>
<g>
	<g>
		<g class="st0">
			<path class="st1" d="M260.6,199.9h-11.8v-5.1v-32.7c-1.2-4.3-3.5-7.9-6.9-10.6c-3.4-2.8-7.3-4.2-11.8-4.2
				c-4.2,0-7.8,1.2-10.9,3.6c-3.1,2.4-5.4,5.5-6.9,9.4v39.7h-13v-64.9h13v6.2c2.5-1.9,5.3-3.4,8.3-4.5c3-1.1,6.2-1.7,9.5-1.7
				c4,0,7.8,0.8,11.4,2.4c3.6,1.6,6.8,3.8,9.5,6.5c2.7,2.7,4.9,5.9,6.6,9.6c1.7,3.7,2.7,7.6,3.1,11.8V199.9z"/>
			<path class="st1" d="M333.2,135v65.1H321v-7.3c-2.7,2.3-5.7,4-9,5.3c-3.3,1.3-6.9,1.9-10.7,1.9c-4.3,0-8.4-0.8-12.1-2.5
				c-3.8-1.7-7.1-4-9.9-6.9c-2.8-2.9-5-6.3-6.7-10.3c-1.6-3.9-2.5-8.2-2.5-12.7c0-4.4,0.8-8.6,2.5-12.5c1.6-3.9,3.9-7.3,6.7-10.2
				c2.8-2.9,6.1-5.2,9.9-6.9c3.8-1.7,7.8-2.5,12.1-2.5c3.8,0,7.4,0.6,10.7,1.9c3.3,1.3,6.3,3.1,9,5.3V135H333.2z M301.3,188.2
				c2.5,0,4.9-0.5,7.1-1.4c2.2-0.9,4.2-2.1,6-3.7c1.7-1.6,3.2-3.4,4.4-5.6c1.2-2.2,1.9-4.5,2.3-7v-5.5c-0.3-2.5-1.1-4.8-2.3-7
				c-1.2-2.2-2.6-4-4.4-5.6c-1.7-1.6-3.7-2.8-6-3.7c-2.3-0.9-4.6-1.4-7.1-1.4c-2.7,0-5.2,0.5-7.7,1.6c-2.4,1.1-4.5,2.5-6.4,4.4
				c-1.8,1.8-3.2,4-4.3,6.4c-1,2.5-1.6,5.1-1.6,7.9c0,2.9,0.5,5.5,1.6,8c1,2.5,2.5,4.6,4.3,6.5c1.8,1.9,3.9,3.3,6.4,4.4
				C296,187.7,298.6,188.2,301.3,188.2z"/>
			<path class="st1" d="M406.5,135v65.1h-12.2v-7.3c-2.7,2.3-5.7,4-9,5.3c-3.3,1.3-6.9,1.9-10.7,1.9c-4.3,0-8.4-0.8-12.1-2.5
				c-3.8-1.7-7.1-4-9.9-6.9c-2.8-2.9-5-6.3-6.7-10.3c-1.6-3.9-2.5-8.2-2.5-12.7c0-4.4,0.8-8.6,2.5-12.5c1.6-3.9,3.9-7.3,6.7-10.2
				c2.8-2.9,6.1-5.2,9.9-6.9c3.8-1.7,7.8-2.5,12.1-2.5c3.8,0,7.4,0.6,10.7,1.9c3.3,1.3,6.3,3.1,9,5.3V135H406.5z M374.5,188.2
				c2.5,0,4.9-0.5,7.1-1.4c2.2-0.9,4.2-2.1,6-3.7c1.7-1.6,3.2-3.4,4.4-5.6c1.2-2.2,1.9-4.5,2.3-7v-5.5c-0.3-2.5-1.1-4.8-2.3-7
				c-1.2-2.2-2.6-4-4.4-5.6c-1.7-1.6-3.7-2.8-6-3.7c-2.3-0.9-4.6-1.4-7.1-1.4c-2.7,0-5.2,0.5-7.7,1.6c-2.4,1.1-4.5,2.5-6.4,4.4
				c-1.8,1.8-3.2,4-4.3,6.4c-1,2.5-1.6,5.1-1.6,7.9c0,2.9,0.5,5.5,1.6,8c1,2.5,2.5,4.6,4.3,6.5c1.8,1.9,3.9,3.3,6.4,4.4
				C369.3,187.7,371.8,188.2,374.5,188.2z"/>
			<path class="st1" d="M526.2,199.8h-11.7v-37.7c-1.4-4.4-3.7-8-7.1-10.7c-3.3-2.7-7.2-4.1-11.6-4.1c-4.6,0-8.6,1.4-12.1,4.3
				c-3.5,2.9-5.8,6.6-7,11.2v37h-11.9V199l0.4-36.9c-1.3-4.4-3.6-8-6.9-10.7c-3.3-2.7-7.2-4.1-11.6-4.1c-4.2,0-7.9,1.2-11.1,3.5
				c-3.2,2.3-5.6,5.5-7.1,9.3v39.9h-12.9V135h12.9v6.5c2.5-2.1,5.3-3.7,8.4-4.8c3.1-1.1,6.4-1.7,9.7-1.7c4.9,0,9.5,1.3,13.8,3.8
				c4.2,2.5,7.7,5.8,10.5,9.9c2.8-4.1,6.3-7.4,10.6-9.9c4.3-2.5,9.1-3.8,14.3-3.8c5.5,0,10.5,1.5,15,4.4c4.5,2.9,8.1,6.8,10.8,11.4
				c1.4,2.2,2.4,4.5,3.1,6.9c0.7,2.5,1.2,5,1.6,7.6L526.2,199.8z"/>
		</g>
		<g class="st0">
			<path class="st1" d="M611.1,112.5h-26.5v87.5h-17.5v-87.5h-26.4V97.3h70.4V112.5z"/>
			<path class="st1" d="M639,117.7c0,2.9-1,5.4-3,7.5c-2,2-4.5,3.1-7.4,3.1c-2.9,0-5.4-1-7.5-3.1c-2-2-3.1-4.5-3.1-7.5
				c0-2.9,1-5.4,3.1-7.4c2-2,4.5-3,7.5-3c2.9,0,5.3,1,7.3,3.1C638,112.4,639,114.9,639,117.7z M637.5,200.1H620v-67.4h17.5V200.1z"
				/>
			<path class="st1" d="M765.4,167.3c0,9.8-3.4,18-10.1,24.7c-6.7,6.7-15,10.1-24.7,10.1c-9.6,0-17.8-3.5-24.7-10.4
				c-6.8,6.9-15.1,10.4-24.7,10.4c-9.8,0-18-3.4-24.7-10.1c-6.7-6.7-10.1-15-10.1-24.7v-34.7H664v34.7c0,4.8,1.7,8.8,5.1,12.2
				c3.4,3.4,7.5,5.1,12.3,5.1c4.8,0,8.8-1.7,12.2-5.1c3.3-3.4,5-7.4,5-12.2v-34.7h17.5v43.6c3.4,5.5,8.3,8.3,14.7,8.3
				c4.8,0,8.8-1.7,12.1-5.1c3.3-3.4,5-7.4,5-12.2v-34.7h17.5V167.3z"/>
			<path class="st1" d="M858,200.1h-18.6l-3.7-10.1c-6.9,8.1-15.8,12.2-26.5,12.2c-9.7,0-17.9-3.4-24.6-10.1
				c-6.7-6.8-10.1-14.9-10.1-24.5c0-7.4,2.1-14,6.2-19.9c4.2-5.9,9.7-10.1,16.6-12.7c4.1-1.5,8.1-2.2,11.9-2.2
				c7.4,0,14,2.1,19.9,6.3c5.9,4.2,10.1,9.8,12.7,16.7L858,200.1z M826.4,167.4c0-6.1-2.5-10.8-7.4-14.2c-2.9-2-6.1-3-9.9-3
				c-6.1,0-10.7,2.4-14,7.3c-2.1,3-3.1,6.3-3.1,9.9c0,6,2.5,10.7,7.4,14.1c3,2.1,6.3,3.1,9.7,3.1c4.8,0,8.8-1.7,12.2-5
				C824.7,176.2,826.4,172.2,826.4,167.4z"/>
			<path class="st1" d="M901.9,150.2c-4.8,0-8.8,1.7-12.2,5c-3.4,3.3-5.1,7.4-5.1,12.1v32.8h-17.5v-32.8c0-9.7,3.4-17.9,10.1-24.6
				s15-10,24.7-10V150.2z"/>
			<path class="st1" d="M980.2,200.8c0,9.8-3.4,18-10.1,24.6c-6.7,6.7-15,10-24.7,10v-17.5c4.8,0,8.8-1.7,12.2-5
				c3.4-3.3,5.1-7.4,5.1-12.1v-3.1c-5.4,3-11.1,4.5-17.3,4.5c-9.7,0-17.9-3.4-24.7-10.1c-6.8-6.7-10.1-15-10.1-24.6v-34.7h17.5v34.7
				c0,4.8,1.7,8.8,5,12.2c3.3,3.4,7.4,5.1,12.2,5.1c4.8,0,8.9-1.7,12.3-5.1s5.1-7.4,5.1-12.2v-34.7h17.5V200.8z"/>
		</g>
		<g>
			<path class="st2" d="M36.7,285.4c-7.7,3.6-7.7-22.4-7.6-26.7c2.3-47.2,36.7-180.1,68.1-214c15.8-16.9,32.9-11.7,40.4,9.4
				c4.6,13.3,10.1,46,12.2,64.5c1.8,0.3,3.6,0.6,5.2,0.9c14.1,2.9,42.1,11.3,53.8,18.2l5.7,4.1c-8.8-0.6-5.1,0-13.4-1.8
				c-14.7-3.2-32.7-7.3-50.1-9c2.2,29,3.6,91.2-31.5,93.1c-28.2,1.5-48.2-40.6-46.3-66c2.3-29.8,24.8-40,49.4-41.2
				c-2.6-21.5-5.9-45-8.9-55.2c-1,1-1.9,2.2-2.7,3.1c-27,33.4-65.5,150.5-74,194.8C35.5,267.5,32.8,278,36.7,285.4L36.7,285.4z
				 M124.1,131.1c-2.9,0.4-5.7,0.9-8.3,1.5c-29.4,7.3-28.9,33.2-15.1,54.7c2.6,4,13,16.7,17.8,14.5c8.1-3.9,8.3-35.6,7.9-44
				C126.2,153.4,125.3,143.4,124.1,131.1L124.1,131.1z M117.1,58.7c0.1,0,0.2-0.1,0.2-0.1C117.2,58.7,117.1,58.7,117.1,58.7
				L117.1,58.7z"/>
		</g>
	</g>
	<g>
		<path d="M992.6,105.1c0-16.2,13.1-29.2,29.2-29.2c16.2,0,29.2,13.1,29.2,29.2s-13.1,29.2-29.2,29.2
			C1005.6,134.2,992.6,121.2,992.6,105.1z M1021.8,81.8c-12.9,0-23.3,10.4-23.3,23.2c0,12.9,10.4,23.3,23.3,23.3
			c12.9,0,23.3-10.4,23.3-23.3C1045.1,92.2,1034.7,81.8,1021.8,81.8z"/>
		<path d="M1016.9,108.2c0,3.8,0,7.7,0,11.5c-2.6,0-5.2,0-7.8,0c0-10.2,0-20.3,0-30.5c0.2,0,0.3,0,0.5,0c3.9,0,7.9,0,11.8,0
			c2.2,0,4.5,0.2,6.6,1c3,1.1,4.5,3.4,4.7,6.5c0.1,1.5,0,3-0.6,4.4c-0.9,2.2-2.6,3.4-4.7,4.2c-0.1,0.1-0.3,0.1-0.5,0.2
			c2.3,0.7,3.7,2.3,4.7,4.2c1.7,3.2,3.3,6.6,4.9,9.8c0,0.1,0,0.1,0.1,0.2c-0.2,0-0.3,0-0.4,0c-2.5,0-5,0-7.5,0
			c-0.3,0-0.5-0.1-0.6-0.4c-1.2-2.5-2.4-5-3.7-7.5c-0.3-0.5-0.6-1-0.9-1.5c-0.9-1.3-2.1-2-3.7-2.1
			C1018.8,108.1,1017.9,108.2,1016.9,108.2z M1016.9,102.8c1.7-0.1,3.3-0.1,4.9-0.2c1.4-0.1,2.5-0.9,2.8-2.4c0.2-0.9,0.2-1.8,0-2.7
			c-0.3-1.2-1-2-2.2-2.4c-0.3-0.1-0.6-0.2-1-0.2c-1.5,0-3.1,0-4.6,0C1016.9,97.5,1016.9,100.1,1016.9,102.8z"/>
	</g>
</g>
</svg>
