<svg xmlns="http://www.w3.org/2000/svg" viewBox="0 0 881 135.26"><defs><style>.cls-1{fill:#fff;}</style></defs><title>header-white</title><g id="Layer_2" data-name="Layer 2"><g id="Layer_1-2" data-name="Layer 1"><path class="cls-1" d="M381.6,45.63l-9.89-3.1-18.9-5.9c-1.68-.52-2.43-1.45-2.41-2.93s.71-2.28,2.38-2.81L419.86,9.82Q435,5.07,450.09.3a5.6,5.6,0,0,1,3.55,0q37.53,11.81,75.08,23.58L550,30.54c.5.16,1,.33,1.49.52a2.69,2.69,0,0,1,1.88,2.7,2.62,2.62,0,0,1-1.87,2.69c-1.8.63-3.61,1.19-5.43,1.76L475,60.55c-7.18,2.25-14.35,4.54-21.56,6.72a5.58,5.58,0,0,1-3.06,0q-27.59-8.64-55.12-17.42a2.51,2.51,0,0,0-3,.81,26.25,26.25,0,0,0-5.3,9.88,57.7,57.7,0,0,0-2.48,13.35,1.53,1.53,0,0,0,.78,1.58,11,11,0,0,1,.37,17.88,1.53,1.53,0,0,0-.67,1.63q1.73,12.39,3.37,24.79c.54,4.06,1.08,8.11,1.59,12.17a2.77,2.77,0,0,1-2.83,3.31q-8.38.06-16.77,0a2.77,2.77,0,0,1-2.86-3.39c1-7.63,2-15.25,3-22.88.63-4.73,1.28-9.47,1.86-14.21a1.62,1.62,0,0,0-.53-1.29c-5.94-4.11-6.12-14.23.63-18.3.87-.53.75-1.28.79-2a64.82,64.82,0,0,1,3-16.32,41.26,41.26,0,0,1,5-10.37C381.3,46.24,381.41,46,381.6,45.63Z"/><path class="cls-1" d="M397.11,62.33l10.5,3.29,39.84,12.56a14.07,14.07,0,0,0,8.61,0q24.57-7.7,49.12-15.44l1.49-.46c.18,2.79.35,5.44.51,8.1.33,5.86.46,11.74,1,17.58.54,5.38-1.65,9.23-5.73,12.34A49.34,49.34,0,0,1,486.34,108c-13.14,3.92-26.61,5-40.26,4.52a111.25,111.25,0,0,1-31.6-5.46c-5.25-1.78-10.24-4.08-14.46-7.78-3.19-2.79-5.1-6.14-4.48-10.58.2-1.4.15-2.83.24-4.25q.59-10.49,1.2-21C397,63.14,397.06,62.79,397.11,62.33Z"/><line class="cls-1" y1="67.63" x2="347" y2="67.63"/><path class="cls-1" d="M0,66.38c28.92-2,57.83-3.47,86.75-5l43.38-2.06,43.37-1.69c14.46-.5,28.92-1.57,43.38-2.37a402.2,402.2,0,0,1,43.37-.13q21.69,1.09,43.38,3.67c7.22.89,14.45,1.89,21.68,3.12s14.46,2.6,21.69,4.46v2.5c-7.23,1.86-14.46,3.22-21.69,4.47s-14.46,2.23-21.68,3.12q-21.69,2.59-43.38,3.66A404.79,404.79,0,0,1,216.88,80c-14.46-.8-28.92-1.88-43.38-2.38l-43.37-1.69L86.75,73.88c-28.92-1.53-57.83-3-86.75-5Z"/><line class="cls-1" x1="881" y1="67.63" x2="534" y2="67.63"/><path class="cls-1" d="M881,68.88c-28.92,2-57.83,3.47-86.75,5l-43.37,2.06L707.5,77.63c-14.46.5-28.92,1.58-43.37,2.38a405,405,0,0,1-43.38.12Q599.06,79,577.38,76.47c-7.23-.89-14.46-1.9-21.69-3.12S541.23,70.74,534,68.88v-2.5c7.23-1.86,14.46-3.22,21.69-4.46s14.46-2.23,21.69-3.12q21.68-2.61,43.37-3.67a402.4,402.4,0,0,1,43.38.13c14.45.8,28.91,1.87,43.37,2.37l43.38,1.69,43.37,2.06c28.92,1.53,57.83,3,86.75,5Z"/></g></g></svg>